<mxfile host="app.diagrams.net" modified="2023-10-30T19:19:55.272Z" agent="Mozilla/5.0 (Windows NT 10.0; Win64; x64) AppleWebKit/537.36 (KHTML, like Gecko) Chrome/118.0.0.0 Safari/537.36" etag="ogv_zt2SMFiJrc1pTQcK" version="22.0.8" type="device">
  <diagram id="R2lEEEUBdFMjLlhIrx00" name="Page-1">
    <mxGraphModel dx="584" dy="780" grid="1" gridSize="10" guides="1" tooltips="1" connect="1" arrows="1" fold="1" page="1" pageScale="1" pageWidth="850" pageHeight="1100" math="0" shadow="0" extFonts="Permanent Marker^https://fonts.googleapis.com/css?family=Permanent+Marker">
      <root>
        <mxCell id="0" />
        <mxCell id="1" parent="0" />
        <mxCell id="8_36earkJjX94OaXPBH1-1" value="Пользователь" style="rounded=0;whiteSpace=wrap;html=1;" parent="1" vertex="1">
          <mxGeometry x="1190" y="110" width="120" height="60" as="geometry" />
        </mxCell>
        <mxCell id="8_36earkJjX94OaXPBH1-17" style="edgeStyle=elbowEdgeStyle;rounded=0;orthogonalLoop=1;jettySize=auto;html=1;exitX=0.75;exitY=0;exitDx=0;exitDy=0;entryX=0;entryY=0.75;entryDx=0;entryDy=0;endArrow=none;endFill=0;" parent="1" source="8_36earkJjX94OaXPBH1-2" target="8_36earkJjX94OaXPBH1-1" edge="1">
          <mxGeometry relative="1" as="geometry">
            <Array as="points">
              <mxPoint x="1040" y="155" />
            </Array>
          </mxGeometry>
        </mxCell>
        <mxCell id="8_36earkJjX94OaXPBH1-19" value="Создал" style="edgeLabel;html=1;align=center;verticalAlign=middle;resizable=0;points=[];" parent="8_36earkJjX94OaXPBH1-17" vertex="1" connectable="0">
          <mxGeometry x="0.1892" y="-1" relative="1" as="geometry">
            <mxPoint as="offset" />
          </mxGeometry>
        </mxCell>
        <mxCell id="8_36earkJjX94OaXPBH1-2" value="Анкета" style="rounded=0;whiteSpace=wrap;html=1;" parent="1" vertex="1">
          <mxGeometry x="970" y="210" width="120" height="60" as="geometry" />
        </mxCell>
        <mxCell id="8_36earkJjX94OaXPBH1-3" style="edgeStyle=orthogonalEdgeStyle;rounded=0;orthogonalLoop=1;jettySize=auto;html=1;endArrow=none;endFill=0;" parent="1" source="8_36earkJjX94OaXPBH1-1" target="8_36earkJjX94OaXPBH1-12" edge="1">
          <mxGeometry relative="1" as="geometry">
            <mxPoint x="1470" y="560" as="targetPoint" />
            <Array as="points">
              <mxPoint x="1340" y="140" />
              <mxPoint x="1340" y="530" />
            </Array>
          </mxGeometry>
        </mxCell>
        <mxCell id="8_36earkJjX94OaXPBH1-5" value="" style="endArrow=none;html=1;rounded=0;edgeStyle=orthogonalEdgeStyle;" parent="1" source="8_36earkJjX94OaXPBH1-2" target="8_36earkJjX94OaXPBH1-1" edge="1">
          <mxGeometry width="50" height="50" relative="1" as="geometry">
            <mxPoint x="1140" y="420" as="sourcePoint" />
            <mxPoint x="1190" y="370" as="targetPoint" />
            <Array as="points">
              <mxPoint x="1030" y="140" />
            </Array>
          </mxGeometry>
        </mxCell>
        <mxCell id="8_36earkJjX94OaXPBH1-18" value="Ответил" style="edgeLabel;html=1;align=center;verticalAlign=middle;resizable=0;points=[];" parent="8_36earkJjX94OaXPBH1-5" vertex="1" connectable="0">
          <mxGeometry x="-0.0087" y="2" relative="1" as="geometry">
            <mxPoint as="offset" />
          </mxGeometry>
        </mxCell>
        <mxCell id="8_36earkJjX94OaXPBH1-7" value="" style="endArrow=none;html=1;rounded=0;edgeStyle=orthogonalEdgeStyle;" parent="1" source="8_36earkJjX94OaXPBH1-12" target="8_36earkJjX94OaXPBH1-8" edge="1">
          <mxGeometry width="50" height="50" relative="1" as="geometry">
            <mxPoint x="1270" y="520" as="sourcePoint" />
            <mxPoint x="1110" y="480" as="targetPoint" />
            <Array as="points" />
          </mxGeometry>
        </mxCell>
        <mxCell id="8_36earkJjX94OaXPBH1-8" value="Выбор" style="rounded=0;whiteSpace=wrap;html=1;" parent="1" vertex="1">
          <mxGeometry x="1190" y="330" width="120" height="60" as="geometry" />
        </mxCell>
        <mxCell id="8_36earkJjX94OaXPBH1-9" style="rounded=0;orthogonalLoop=1;jettySize=auto;html=1;exitX=0.5;exitY=0;exitDx=0;exitDy=0;endArrow=none;endFill=0;entryX=0.5;entryY=1;entryDx=0;entryDy=0;" parent="1" source="8_36earkJjX94OaXPBH1-11" target="8_36earkJjX94OaXPBH1-2" edge="1">
          <mxGeometry relative="1" as="geometry">
            <mxPoint x="950" y="470" as="targetPoint" />
          </mxGeometry>
        </mxCell>
        <mxCell id="8_36earkJjX94OaXPBH1-10" style="edgeStyle=orthogonalEdgeStyle;rounded=0;orthogonalLoop=1;jettySize=auto;html=1;exitX=1;exitY=0.5;exitDx=0;exitDy=0;entryX=0;entryY=0.5;entryDx=0;entryDy=0;endArrow=none;endFill=0;" parent="1" source="8_36earkJjX94OaXPBH1-11" target="8_36earkJjX94OaXPBH1-8" edge="1">
          <mxGeometry relative="1" as="geometry" />
        </mxCell>
        <mxCell id="8_36earkJjX94OaXPBH1-11" value="Вариант ответа" style="rounded=0;whiteSpace=wrap;html=1;" parent="1" vertex="1">
          <mxGeometry x="970" y="330" width="120" height="60" as="geometry" />
        </mxCell>
        <mxCell id="8_36earkJjX94OaXPBH1-12" value="Страна" style="rounded=0;whiteSpace=wrap;html=1;" parent="1" vertex="1">
          <mxGeometry x="1190" y="500" width="120" height="60" as="geometry" />
        </mxCell>
      </root>
    </mxGraphModel>
  </diagram>
</mxfile>
